<svg xmlns="http://www.w3.org/2000/svg" viewBox="216 1811 80 72">
  <defs>
    <style>
      .cls-1 {
        fill: #fff;
      }
    </style>
  </defs>
  <g id="_1492566194_Camera-01" data-name="1492566194_Camera-01" transform="translate(214 1808)">
    <path id="Path_1" data-name="Path 1" class="cls-1" d="M72.4,15H63.1L60.248,6.94C59.36,4.276,56.876,3,54.068,3H29.932c-2.808,0-5.292,1.276-6.18,3.94L20.9,15H11.6C5.62,15,2,19.988,2,25.972v39.08C2,71.036,5.62,75,11.6,75H72.392C78.38,75,82,71.036,82,65.052V25.972C82,19.988,78.38,15,72.4,15ZM78,65.052C78,68.644,75.988,71,72.4,71H11.6C8.012,71,6,68.644,6,65.052V25.972C6,22.384,8.012,19,11.6,19H22.46a1.984,1.984,0,0,0,2.06-1.252l3.352-9.66C28.168,7.2,29,7,29.932,7H54.068a1.94,1.94,0,0,1,2.06,1.2l3.352,9.684c.3.884,1.124,1.112,2.06,1.112H72.4c3.592,0,5.6,3.384,5.6,6.972Z"/>
    <path id="Path_2" data-name="Path 2" class="cls-1" d="M28.284,7.658A21.71,21.71,0,1,0,50,29.366,21.737,21.737,0,0,0,28.284,7.658Zm0,39.08A17.37,17.37,0,1,1,45.652,29.366,17.389,17.389,0,0,1,28.284,46.738Z" transform="translate(13.716 13.974)"/>
  </g>
</svg>
